<svg width="31" height="31" viewBox="0 0 31 31" fill="none" xmlns="http://www.w3.org/2000/svg">
<path id="&#239;&#153;&#136;" d="M19.0625 5.6875L20.0625 8.8125L14.4375 14.5C13.8125 15.0625 13.8125 16 14.4375 16.5625C15 17.1875 15.9375 17.1875 16.5 16.5625L22.1875 10.9375L25.3125 11.9375C25.75 12.125 26.25 12 26.625 11.625L30.5625 7.6875C31.25 7 31 5.875 30.0625 5.5625L26.625 4.375L25.4375 0.9375C25.125 0 24 -0.25 23.3125 0.4375L19.375 4.375C19.125 4.625 18.9375 5 18.9375 5.3125C18.9375 5.4375 19 5.5625 19.0625 5.6875ZM15.5 9C15.9375 9 16.4375 9.0625 16.875 9.1875L17.8125 8.25L17.125 6.3125C17.125 6.3125 17.125 6.25 17.125 6.1875C16.5625 6.125 16.0625 6 15.4375 6C10.1875 6 5.9375 10.25 5.9375 15.5C5.9375 20.8125 10.1875 25 15.4375 25C20.75 25 24.9375 20.75 24.9375 15.5C24.9375 14.9375 24.875 14.4375 24.8125 13.875C24.75 13.875 24.6875 13.875 24.6875 13.875L22.75 13.1875L21.8125 14.125C21.9375 14.5625 21.9375 15.0625 21.9375 15.5C21.9375 19.125 19.0625 22 15.4375 22C11.875 22 8.9375 19.125 8.9375 15.5C8.9375 11.9375 11.875 9 15.5 9ZM30.25 10.875L28 13.0625C27.9375 13.125 27.875 13.1875 27.75 13.3125C27.875 14 28 14.75 28 15.5C28 22.4375 22.375 28 15.5 28C8.5625 28 3 22.4375 3 15.5C3 8.625 8.5625 3 15.5 3C16.25 3 17 3.125 17.75 3.25C17.8125 3.125 17.875 3.0625 17.9375 3L20.125 0.75C18.875 0.375 16.8125 0 15.5 0C6.9375 0 0 7 0 15.5C0 24.0625 6.9375 31 15.5 31C24 31 31 24.0625 31 15.5C31 13.875 30.6875 12.3125 30.25 10.875Z" fill="#03AF9F"/>
</svg>
